name rise30.3154peak39.0474fall46.5389.mot
datacolumns 19
datarows 14
range 22.96825200000000 22.98991500000000
endheader
time	ground_force1_vx	ground_force1_vy	ground_force1_vz	ground_force1_px	ground_force1_py	ground_force1_pz	ground_force2_vx	ground_force2_vy	ground_force2_vz	ground_force2_px	ground_force2_py	ground_force2_pz	ground_torque1_x	ground_torque1_y	ground_torque1_z	ground_torque2_x	ground_torque2_y	ground_torque2_z	
22.96825200000000	-8.49655100000000	40.15906700000000	-13.73309500000000	0.34104800000000	0.00000000000000	0.05820100000000	-42.81257400000000	770.47172200000000	-50.35395600000000	0.16181100000000	0.00000000000000	-0.10834000000000	0.00000000000000	-10.79330500000000	0.00000000000000	0.00000000000000	-22.72180000000000	0.00000000000000	
22.96992500000000	-9.34658500000000	47.21232100000000	-15.47515100000000	0.34568200000000	0.00000000000000	0.05956000000000	-43.29191900000000	768.32968800000003	-50.30787600000000	0.16083200000000	0.00000000000000	-0.10833200000000	0.00000000000000	-12.23425600000000	0.00000000000000	0.00000000000000	-22.69210200000000	0.00000000000000	
22.97158400000000	-10.04317700000000	54.39064900000000	-17.06965300000000	0.34995300000000	0.00000000000000	0.06077200000000	-43.79603100000000	766.11700800000006	-50.24956200000000	0.15985000000000	0.00000000000000	-0.10832200000000	0.00000000000000	-13.57195900000000	0.00000000000000	0.00000000000000	-22.66584600000000	0.00000000000000	
22.97325200000000	-10.56310500000000	61.60400200000000	-18.48029200000000	0.35392300000000	0.00000000000000	0.06186400000000	-44.32476400000000	763.83162500000003	-50.17835300000000	0.15886500000000	0.00000000000000	-0.10830900000000	0.00000000000000	-14.77610000000000	0.00000000000000	0.00000000000000	-22.64299000000000	0.00000000000000	
22.97491800000000	-10.89233000000000	68.78317199999999	-19.68274400000000	0.35764000000000	0.00000000000000	0.06285400000000	-44.87787100000000	761.47133699999995	-50.09357100000000	0.15788000000000	0.00000000000000	-0.10829300000000	0.00000000000000	-15.82569300000000	0.00000000000000	0.00000000000000	-22.62346700000000	0.00000000000000	
22.97657800000000	-11.02589400000000	75.88206000000000	-20.66487500000000	0.36114100000000	0.00000000000000	0.06375700000000	-45.45500000000000	759.03380300000003	-49.99452200000000	0.15689600000000	0.00000000000000	-0.10827400000000	0.00000000000000	-16.70939200000000	0.00000000000000	0.00000000000000	-22.60718500000000	0.00000000000000	
22.97824700000000	-10.96708700000000	82.87765200000000	-21.42590400000000	0.36445800000000	0.00000000000000	0.06458600000000	-46.05569400000000	756.51654399999995	-49.88050100000000	0.15591200000000	0.00000000000000	-0.10825200000000	0.00000000000000	-17.42497000000000	0.00000000000000	0.00000000000000	-22.59402900000000	0.00000000000000	
22.97991200000000	-10.72608500000000	89.76810999999999	-21.97479400000000	0.36761400000000	0.00000000000000	0.06535100000000	-46.67939000000000	753.91695500000003	-49.75079400000000	0.15493200000000	0.00000000000000	-0.10822800000000	0.00000000000000	-17.97814000000000	0.00000000000000	0.00000000000000	-22.58386200000000	0.00000000000000	
22.98157900000000	-10.31826400000000	96.56943800000001	-22.32811300000000	0.37063000000000	0.00000000000000	0.06606100000000	-47.32542300000000	751.23230999999998	-49.60468400000000	0.15395500000000	0.00000000000000	-0.10819900000000	0.00000000000000	-18.38092600000000	0.00000000000000	0.00000000000000	-22.57652200000000	0.00000000000000	
22.98325300000000	-9.76237400000000	103.31126700000000	-22.50765200000000	0.37352300000000	0.00000000000000	0.06672200000000	-47.99301900000000	748.45976800000005	-49.44145000000000	0.15298300000000	0.00000000000000	-0.10816800000000	0.00000000000000	-18.64979500000000	0.00000000000000	0.00000000000000	-22.57182500000000	0.00000000000000	
22.98491800000000	-9.07876100000000	110.03225399999999	-22.53802900000000	0.37630600000000	0.00000000000000	0.06734000000000	-48.68130100000000	745.59638600000005	-49.26037200000000	0.15201800000000	0.00000000000000	-0.10813300000000	0.00000000000000	-18.80375300000000	0.00000000000000	0.00000000000000	-22.56956500000000	0.00000000000000	
22.98658300000000	-8.28776500000000	116.77552700000000	-22.44448300000000	0.37899000000000	0.00000000000000	0.06792000000000	-49.38928700000000	742.63912300000004	-49.06073700000000	0.15106000000000	0.00000000000000	-0.10809400000000	0.00000000000000	-18.86255400000000	0.00000000000000	0.00000000000000	-22.56951400000000	0.00000000000000	
22.98825000000000	-7.40839400000000	123.58455800000000	-22.25099400000000	0.38158500000000	0.00000000000000	0.06846600000000	-50.11589400000000	739.58485700000006	-48.84184200000000	0.15011000000000	0.00000000000000	-0.10805100000000	0.00000000000000	-18.84515800000000	0.00000000000000	0.00000000000000	-22.57142300000000	0.00000000000000	
22.98991500000000	-6.45733000000000	130.49968000000001	-21.97883000000000	0.38409900000000	0.00000000000000	0.06898200000000	-50.85993500000000	736.43038999999999	-48.60299500000000	0.14917000000000	0.00000000000000	-0.10800500000000	0.00000000000000	-18.76851100000000	0.00000000000000	0.00000000000000	-22.57502100000000	0.00000000000000	
